<?xml version="1.0" encoding="UTF-8" standalone="no"?>
<!-- Created with Inkscape (http://www.inkscape.org/) -->

<svg
   xmlns:dc="http://purl.org/dc/elements/1.1/"
   xmlns:cc="http://creativecommons.org/ns#"
   xmlns:rdf="http://www.w3.org/1999/02/22-rdf-syntax-ns#"
   xmlns:svg="http://www.w3.org/2000/svg"
   xmlns="http://www.w3.org/2000/svg"
   version="1.1"
   width="22"
   height="22"
   id="svg6784">
  <defs
     id="defs6786" />
  <metadata
     id="metadata6789">
    <rdf:RDF>
      <cc:Work
         rdf:about="">
        <dc:format>image/svg+xml</dc:format>
        <dc:type
           rdf:resource="http://purl.org/dc/dcmitype/StillImage" />
        <dc:title></dc:title>
      </cc:Work>
    </rdf:RDF>
  </metadata>
  <g
     transform="translate(0,6)"
     id="layer1">
    <rect
       width="20.999784"
       height="20.999784"
       x="0.50010806"
       y="-5.4998927"
       id="rect6802"
       style="fill:#ffffff;fill-opacity:1;stroke:#223956;stroke-width:1;stroke-miterlimit:4;stroke-opacity:1;stroke-dasharray:none" />
    <path
       d="M 5.4854939,2.8010096 C 6.2349793,2.218612 6.856739,2.6202655 7.6865551,3.5810207 7.7797387,3.6894672 7.9050546,3.5625447 7.976549,3.50069 8.04724,3.4380321 9.1421475,2.4523744 9.195969,2.4073892 9.2489873,2.3599941 9.3132518,2.2716303 9.2289046,2.1728235 9.1429508,2.0740168 8.8320709,1.6707567 8.6320475,1.4088786 7.1796684,-0.49094241 12.605204,-1.779447 11.772175,-1.7995297 11.348029,-1.810776 9.6466243,-1.8308587 9.3919759,-1.8027429 8.361333,-1.6942965 7.0672054,-0.73113121 6.4157234,-0.28208261 5.5634147,0.30111827 5.2453051,0.64332706 5.1930901,0.69072216 4.952098,0.90118863 5.1545314,1.3871893 4.7175324,1.7703668 4.2556308,2.1744302 3.9672436,1.8683702 3.6997424,2.1029358 3.5671967,2.2202187 3.1960689,2.4981629 3.0900323,2.5905432 2.9831925,2.6845301 2.9639131,2.8427816 3.0731629,2.9689008 c 0,0 1.0153801,1.1214166 1.1005306,1.2210267 0.084347,0.098003 0.3140931,0.183154 0.4554751,0.057035 C 4.7713539,4.1216464 5.1368586,3.8027335 5.19791,3.746502 5.2605679,3.6934837 5.1577446,3.0548546 5.4854939,2.8010096 z M 10.07077,3.2163194 C 9.9743737,3.1046597 9.8546808,3.1014465 9.7518575,3.1930235 L 8.5999152,4.1987639 c -0.090774,0.080331 -0.1036266,0.2273358 -0.021689,0.3213228 l 6.6626288,7.5824143 c 0.155842,0.179138 0.425753,0.197614 0.603284,0.04257 l 0.779208,-0.653088 c 0.178334,-0.156645 0.19681,-0.428163 0.04177,-0.608907 L 10.07077,3.2163194 z m 8.883773,-3.22688426 c -0.05945,-0.39683365 -0.265092,-0.31409305 -0.371932,-0.14620185 -0.106839,0.16949776 -0.579184,0.88524427 -0.773584,1.20978031 -0.192794,0.3213228 -0.668352,0.9567386 -1.553596,0.3293559 -0.922196,-0.65148194 -0.601677,-1.10615375 -0.441016,-1.41221371 0.161465,-0.3076666 0.657106,-1.17041839 0.7286,-1.27725819 0.07149,-0.1084464 -0.01205,-0.4233429 -0.298027,-0.2916005 -0.286781,0.1317424 -2.026744,0.82338979 -2.267736,1.81547393 -0.246615,1.00895357 0.20645,1.91106737 -0.682811,2.80675467 l -1.078841,1.1246298 1.083661,1.2579788 1.32867,-1.261192 c 0.316503,-0.3181096 0.992887,-0.6273828 1.605007,-0.4876074 1.311801,0.2964203 2.027547,-0.1960069 2.458923,-1.0105602 0.387194,-0.7277961 0.32293,-2.26050589 0.262682,-2.65733956 z M 5.1673843,10.965019 c -0.1670879,0.167891 -0.1670879,0.441015 0,0.608906 l 0.763945,0.747076 c 0.1670878,0.167891 0.4321792,0.0972 0.599267,-0.07069 L 10.472424,8.3751571 9.2650534,6.9982888 5.1673843,10.965019 z"
       id="path2986"
       style="fill:#223956;fill-opacity:1" />
  </g>
</svg>
