<?xml version="1.0" encoding="UTF-8" standalone="no"?>
<!-- Created with Inkscape (http://www.inkscape.org/) -->

<svg
   xmlns:dc="http://purl.org/dc/elements/1.1/"
   xmlns:cc="http://creativecommons.org/ns#"
   xmlns:rdf="http://www.w3.org/1999/02/22-rdf-syntax-ns#"
   xmlns:svg="http://www.w3.org/2000/svg"
   xmlns="http://www.w3.org/2000/svg"
   version="1.1"
   width="22"
   height="22"
   id="svg6784">
  <defs
     id="defs6786" />
  <metadata
     id="metadata6789">
    <rdf:RDF>
      <cc:Work
         rdf:about="">
        <dc:format>image/svg+xml</dc:format>
        <dc:type
           rdf:resource="http://purl.org/dc/dcmitype/StillImage" />
        <dc:title></dc:title>
      </cc:Work>
    </rdf:RDF>
  </metadata>
  <rect
     width="20.999784"
     height="20.999784"
     x="0.50010806"
     y="0.50010729"
     id="rect6802"
     style="fill:#223956;fill-opacity:1;stroke:#223956;stroke-width:1;stroke-miterlimit:4;stroke-opacity:1;stroke-dasharray:none" />
  <path
     d="M 5.4854939,8.8010096 C 6.2349793,8.218612 6.856739,8.6202655 7.6865551,9.5810207 7.7797387,9.6894672 7.9050546,9.5625447 7.976549,9.50069 8.04724,9.4380321 9.1421475,8.4523744 9.195969,8.4073892 9.2489873,8.3599941 9.3132518,8.2716303 9.2289046,8.1728235 9.1429508,8.0740168 8.8320709,7.6707567 8.6320475,7.4088786 7.1796684,5.5090576 12.605204,4.220553 11.772175,4.2004703 11.348029,4.189224 9.6466243,4.1691413 9.3919759,4.1972571 8.361333,4.3057035 7.0672054,5.2688688 6.4157234,5.7179174 5.5634147,6.3011183 5.2453051,6.6433271 5.1930901,6.6907222 4.952098,6.9011886 5.1545314,7.3871893 4.7175324,7.7703668 4.2556308,8.1744302 3.9672436,7.8683702 3.6997424,8.1029358 3.5671967,8.2202187 3.1960689,8.4981629 3.0900323,8.5905432 2.9831925,8.6845301 2.9639131,8.8427816 3.0731629,8.9689008 c 0,0 1.0153801,1.1214162 1.1005306,1.2210272 0.084347,0.098 0.3140931,0.183154 0.4554751,0.05703 C 4.7713539,10.121646 5.1368586,9.8027335 5.19791,9.746502 5.2605679,9.6934837 5.1577446,9.0548546 5.4854939,8.8010096 z M 10.07077,9.2163194 C 9.9743737,9.1046597 9.8546808,9.1014465 9.7518575,9.1930235 L 8.5999152,10.198764 c -0.090774,0.08033 -0.1036266,0.227336 -0.021689,0.321323 l 6.6626288,7.582414 c 0.155842,0.179138 0.425753,0.197614 0.603284,0.04257 l 0.779208,-0.653088 c 0.178334,-0.156645 0.19681,-0.428163 0.04177,-0.608907 L 10.07077,9.2163194 z M 18.954543,5.9894351 C 18.895093,5.5926015 18.689451,5.6753421 18.582611,5.8432333 18.475772,6.012731 18.003427,6.7284776 17.809027,7.0530136 17.616233,7.3743364 17.140675,8.0097522 16.255431,7.3823695 15.333235,6.7308876 15.653754,6.2762158 15.814415,5.9701558 c 0.161465,-0.3076666 0.657106,-1.1704184 0.7286,-1.2772582 0.07149,-0.1084464 -0.01205,-0.4233429 -0.298027,-0.2916005 -0.286781,0.1317424 -2.026744,0.8233898 -2.267736,1.8154739 -0.246615,1.0089536 0.20645,1.9110674 -0.682811,2.8067547 l -1.078841,1.1246303 1.083661,1.257978 1.32867,-1.261192 c 0.316503,-0.3181093 0.992887,-0.6273825 1.605007,-0.4876071 1.311801,0.2964203 2.027547,-0.1960069 2.458923,-1.0105602 0.387194,-0.7277961 0.32293,-2.2605059 0.262682,-2.6573396 z M 5.1673843,16.965019 c -0.1670879,0.167891 -0.1670879,0.441015 0,0.608906 l 0.763945,0.747076 c 0.1670878,0.167891 0.4321792,0.0972 0.599267,-0.07069 l 3.9418277,-3.875154 -1.2073706,-1.376868 -4.0976691,3.96673 z"
     id="path2986"
     style="fill:#ffffff;fill-opacity:1" />
</svg>
