<?xml version="1.0" encoding="UTF-8" standalone="no"?>
<!-- Created with Inkscape (http://www.inkscape.org/) -->

<svg
   xmlns:dc="http://purl.org/dc/elements/1.1/"
   xmlns:cc="http://creativecommons.org/ns#"
   xmlns:rdf="http://www.w3.org/1999/02/22-rdf-syntax-ns#"
   xmlns:svg="http://www.w3.org/2000/svg"
   xmlns="http://www.w3.org/2000/svg"
   version="1.1"
   width="22"
   height="22"
   id="svg6784">
  <defs
     id="defs6786" />
  <metadata
     id="metadata6789">
    <rdf:RDF>
      <cc:Work
         rdf:about="">
        <dc:format>image/svg+xml</dc:format>
        <dc:type
           rdf:resource="http://purl.org/dc/dcmitype/StillImage" />
        <dc:title></dc:title>
      </cc:Work>
    </rdf:RDF>
  </metadata>
  <g
     transform="translate(0,6)"
     id="layer1">
    <rect
       width="20.999784"
       height="20.999784"
       x="0.50010806"
       y="-5.4998927"
       id="rect6802"
       style="fill:#ffffff;fill-opacity:1;stroke:#223956;stroke-width:1;stroke-miterlimit:4;stroke-opacity:1;stroke-dasharray:none" />
    <path
       d="M 5.0312,13 H 7.8 L 8.9248,10.0416 6.552,9.2384 5.0312,13 z M 13.0752,10.0416 14.2,13 h 2.7688 L 15.448,9.2384 13.0752,10.0416 z M 17.4,-1.4 H 12.2 L 11.8,-3 H 10.2 L 9.8,-1.4 H 4.6 c -0.4424,0 -0.8,0.3576 -0.8,0.8 V 8.2 C 3.8,8.6416 4.1576,9 4.6,9 h 12.8 c 0.4424,0 0.8,-0.3584 0.8,-0.8 v -8.8 c 0,-0.4416 -0.3576,-0.8 -0.8,-0.8 z"
       id="path7644"
       style="fill:#223a56;fill-opacity:1;fill-rule:evenodd" />
  </g>
</svg>
